<svg width="32" height="32" viewBox="0 0 32 32" fill="none" xmlns="http://www.w3.org/2000/svg">
<g clip-path="url(#clip0_2_351)">
<circle cx="16" cy="16" r="16" fill="#BEDAFD"/>
<path d="M6.74324 22.9302L6.9815 21.7244L7.21976 20.5185L7.45802 19.3126L7.69628 18.1068L7.97175 16.0223L8.24722 13.9378L8.76096 10.6475L9.18154 8.51883C9.21853 8.3316 9.28863 8.15247 9.38853 7.98986C10.0767 6.86972 11.746 7.00698 12.242 8.22449L13.251 10.7015L14.3423 14.3748C14.4799 14.8378 14.8328 15.2057 15.2897 15.3623C15.8553 15.5563 16.482 15.3943 16.8828 14.9507L19.3643 12.2036L21.4937 10.3183C22.1697 9.71978 23.1821 9.70693 23.8731 10.2881C24.3606 10.6982 24.5985 11.3332 24.5002 11.9627L24.1448 14.239L23.6682 16.6508L22.7581 20.1321C22.6205 20.6585 22.5227 21.1945 22.4656 21.7356L22.2573 23.7097C22.245 23.826 22.2558 23.9436 22.2892 24.0557C22.438 24.5565 22.9849 24.8212 23.47 24.6271L23.5901 24.579C23.7908 24.4987 23.9603 24.3559 24.0735 24.1717L25.1054 22.4919" stroke="white" stroke-width="3"/>
</g>
<defs>
<clipPath id="clip0_2_351">
<rect width="32" height="32" fill="white"/>
</clipPath>
</defs>
</svg>
